<svg xmlns="http://www.w3.org/2000/svg" viewBox="0 0 1024 500" width="1024" height="500">
  <defs>
    <linearGradient id="bg" x1="0" y1="0" x2="1" y2="1">
      <stop offset="0" stop-color="#00857a"/>
      <stop offset="1" stop-color="#00463f"/>
    </linearGradient>
  </defs>
  <rect width="1024" height="500" fill="url(#bg)"/>
  <g transform="translate(70,150) scale(3.0)">
    <path d="M22 12h14a4 4 0 0 1 4 4v34h-22V16a4 4 0 0 1 4-4z" fill="#fff"/>
    <rect x="24" y="20" width="10" height="8" rx="1.5" fill="#00463f"/>
    <rect x="22" y="48" width="18" height="4" fill="#fff"/>
    <path d="M44 22l5 4v18a3 3 0 0 1-3 3v-3h-2V26l-2-2 2-2z" fill="#fff"/>
    <circle cx="46" cy="42" r="2" fill="#fff"/>
    <g fill="none" stroke="#9df4e6" stroke-width="3" stroke-linecap="round">
      <path d="M44 14a6 6 0 0 1 6 6"/>
      <path d="M44 8a12 12 0 0 1 12 12"/>
    </g>
  </g>
  <text x="290" y="250" fill="#ffffff" font-family="Helvetica, Arial, sans-serif" font-size="90" font-weight="bold">FuelRadar</text>
  <text x="294" y="308" fill="#c9f5ec" font-family="Helvetica, Arial, sans-serif" font-size="33">Prix des carburants &#183; FR &#183; ES &#183; PT</text>
</svg>
