<svg xmlns="http://www.w3.org/2000/svg" viewBox="0 0 64 64" width="64" height="64">
  <defs>
    <linearGradient id="bg" x1="0" y1="0" x2="0" y2="1">
      <stop offset="0" stop-color="#00857a"/>
      <stop offset="1" stop-color="#00564e"/>
    </linearGradient>
  </defs>
  <rect width="64" height="64" rx="14" fill="url(#bg)"/>
  <path d="M22 12h14a4 4 0 0 1 4 4v34h-22V16a4 4 0 0 1 4-4z" fill="#fff"/>
  <rect x="24" y="20" width="10" height="8" rx="1.5" fill="#00564e"/>
  <rect x="22" y="48" width="18" height="4" fill="#fff"/>
  <path d="M44 22l5 4v18a3 3 0 0 1-3 3v-3h-2V26l-2-2 2-2z" fill="#fff"/>
  <circle cx="46" cy="42" r="2" fill="#fff"/>
  <g fill="none" stroke="#9df4e6" stroke-width="3" stroke-linecap="round">
    <path d="M44 14a6 6 0 0 1 6 6"/>
    <path d="M44 8a12 12 0 0 1 12 12"/>
  </g>
</svg>
