<svg xmlns="http://www.w3.org/2000/svg" viewBox="0 0 192 192" width="192" height="192">
  <defs>
    <linearGradient id="bg" x1="0" y1="0" x2="0" y2="1">
      <stop offset="0" stop-color="#00857a"/>
      <stop offset="1" stop-color="#00564e"/>
    </linearGradient>
  </defs>
  <rect width="192" height="192" rx="42" fill="url(#bg)"/>
  <path d="M66 36h42a12 12 0 0 1 12 12v102H54V48a12 12 0 0 1 12-12z" fill="#fff"/>
  <rect x="72" y="60" width="30" height="24" rx="4" fill="#00564e"/>
  <rect x="66" y="144" width="54" height="12" fill="#fff"/>
  <path d="M132 66l15 12v54a9 9 0 0 1-9 9v-9h-6V78l-6-6 6-6z" fill="#fff"/>
  <circle cx="138" cy="126" r="6" fill="#fff"/>
  <g fill="none" stroke="#9df4e6" stroke-width="9" stroke-linecap="round">
    <path d="M132 42a18 18 0 0 1 18 18"/>
    <path d="M132 24a36 36 0 0 1 36 36"/>
  </g>
</svg>
